<?xml version="1.0" encoding="UTF-8" standalone="no"?>
<!DOCTYPE svg PUBLIC "-//W3C//DTD SVG 1.1//EN" "http://www.w3.org/Graphics/SVG/1.1/DTD/svg11.dtd">
<svg width="100%" height="100%" viewBox="0 0 800 800" version="1.1" xmlns="http://www.w3.org/2000/svg" xmlns:xlink="http://www.w3.org/1999/xlink" xml:space="preserve" xmlns:serif="http://www.serif.com/" style="fill-rule:evenodd;clip-rule:evenodd;stroke-linejoin:round;stroke-miterlimit:2;">
    <g transform="matrix(2.41626,-0.0270235,0.0270235,2.41626,-552.28,-941.597)">
        <path d="M548.78,430.79C548.36,434.083 548.663,445.14 548.57,446.26C548.183,450.873 548.04,455.507 548.14,460.16C548.16,461.067 548.023,463.107 547.73,466.28C547.603,467.667 547.617,469.057 547.77,470.45C548.23,474.54 548.223,509.707 549.37,513.56C549.763,514.9 549.983,516.083 550.03,517.11C550.17,520.23 550.61,555.673 549.71,560.68C549.103,564.047 548.813,566.797 548.84,568.93C548.88,571.717 549.033,574.497 549.3,577.27C549.52,579.543 549.607,581.867 549.56,584.24C549.45,589.31 549.62,594.19 548.35,599.91C547.777,602.49 547.53,620.2 548.22,624.47C548.75,627.78 548.47,631.16 548.9,634.6C549.053,635.8 549.093,637.4 549.02,639.4C548.95,641.68 548.893,653.477 548.96,654.75C549.033,656.17 548.523,679.383 547.95,685.95C547.95,686.003 547.96,687.703 547.98,691.05C548,693.45 547.13,695.72 547.03,697.91C546.75,703.93 546.437,710.143 546.09,716.55C546.023,717.812 544.967,718.813 543.703,718.813C543.592,718.813 543.48,718.806 543.37,718.79C541.49,718.53 539.79,718.03 537.69,718.23C536.137,718.383 534.583,718.423 533.03,718.35C532.703,718.33 532.407,718.417 532.14,718.61C531.22,719.277 530.193,719.407 529.06,719C528.747,718.887 528.43,718.853 528.11,718.9C526.477,719.127 524.847,719.263 523.22,719.31C522.09,719.34 520.65,720.3 519.96,720.24C517.16,719.987 514.373,720.073 511.6,720.5C511.267,720.553 510.97,720.477 510.71,720.27C510.71,720.27 507.647,720.53 506.68,720.27C505.38,719.923 504.263,720.05 503.33,720.65C503.063,720.817 502.79,720.833 502.51,720.7C501.763,720.333 500.94,720.193 500.04,720.28L495.581,711.4C496.327,711.674 511.423,711.197 511.77,711.23C511.77,711.23 534.867,711.683 535.38,711.89C536.813,712.443 537.32,705.38 537.32,705.38C536.953,705.3 536.807,705.08 536.88,704.72C537.38,702.02 537.453,699.313 537.1,696.6C537,695.787 537.007,694.883 537.12,693.89C537.227,692.943 536.98,692.023 536.38,691.13C536.203,690.866 536.187,690.525 536.34,690.25C537.027,688.997 537.02,687.683 536.32,686.31C536.167,686.003 536.113,685.68 536.16,685.34C536.607,682.307 536.553,679.397 536,676.61C535.667,674.937 535.627,673.37 535.88,671.91C536.32,669.403 536.5,666.433 536.42,663C536.113,649.507 535.963,642.487 535.97,641.94C536.077,633.273 536.07,625.943 535.95,619.95C535.88,616.84 536.54,614.4 536.09,611.13C535.763,608.71 535.723,606.607 535.97,604.82C536.123,603.66 535.993,602.327 535.58,600.82C535.18,599.353 535.157,597.67 535.51,595.77C535.83,594.04 534.97,592.15 535.02,590.31C535.287,581.043 535.61,571.777 535.99,562.51C536.05,561.11 535.42,559.99 535.72,558.47C536.07,556.64 535.33,555.23 535.47,553.41C535.73,550 536.14,546.53 536.19,543.18C536.33,534.22 536.433,527.447 536.5,522.86C536.54,519.63 536.07,514.62 536.83,510.38C536.877,510.12 536.813,509.887 536.64,509.68L536.28,509.25C536.07,508.99 536.017,508.64 536.14,508.34C536.587,507.253 536.753,506.11 536.64,504.91C536.607,504.57 537.223,502.947 536.73,502.56C536.496,502.377 536.356,502.097 536.35,501.8C536.337,501.127 538.39,470.12 538.19,467.09C538.01,464.37 538.053,461.647 538.32,458.92C538.46,457.56 537.84,456.74 538.11,455.25C538.85,451.19 538.5,446.89 538.2,442.78C538.053,440.747 538.137,437.11 538.45,431.87C538.54,430.33 537.92,429.04 538.07,427.39C538.21,425.917 538.223,424.823 538.11,424.11C537.81,422.223 537.623,420.32 537.55,418.4C537.537,418.047 537.417,417.733 537.19,417.46C538.049,415.396 531.022,410.577 528.89,412.32C528.753,412.432 528.571,412.177 528.4,412.17C524.187,412.023 520.16,412.123 516.32,412.47C514.087,412.67 511.873,412.7 509.68,412.56C504.14,412.19 497.7,412.38 493,412.26C487.67,412.12 482.22,412.66 476.92,412.26C474.22,412.047 472.497,411.96 471.75,412C452.21,412.973 437.883,413.16 428.77,412.56C426.427,412.406 424,412.257 421.491,412.113C412.45,411.591 402.333,411.127 391.14,410.72C387.61,410.6 383.51,411.23 379.61,411.02C376.81,410.87 374.02,411.28 371.15,411.06C365.25,410.61 359.66,410.41 354.03,410.81C348.003,411.23 341.973,411.233 335.94,410.82C333.027,410.627 330.107,410.5 327.18,410.44C325.52,410.4 323.65,409.95 321.75,410.04C319.463,410.147 318.293,410.2 318.24,410.2C310.467,410.1 302.697,410.187 294.93,410.46C294.09,410.49 293.1,410.93 292.14,410.57C291.836,410.451 291.51,410.394 291.18,410.4C283.593,410.52 276.82,410.583 270.86,410.59C267.66,410.59 263.26,410.11 259.39,410.34C257.2,410.48 255.12,409.83 252.98,409.89C251.033,409.95 249.43,409.897 248.17,409.73C244.99,409.31 239.74,414.823 241.08,415.91C241.33,416.113 241.446,416.441 241.38,416.76L240.76,419.43C240.687,419.75 240.69,420.067 240.77,420.38C241.13,421.707 241.043,422.887 240.51,423.92C240.37,424.192 240.359,424.514 240.48,424.8C240.787,425.513 239.46,467.48 239.46,467.48C239.453,467.807 238.647,502.447 238.6,502.78C238.11,506.16 237.5,509.23 237.5,512.77C237.5,515.757 237.323,518.727 236.97,521.68C236.81,522.987 236.767,524.203 236.84,525.33C237.05,528.46 237.34,531.38 237.15,534.51C236.87,539.09 236.593,543.677 236.32,548.27C236.21,550.12 236.79,551.98 236.62,554.02C236.593,554.3 236.263,558.277 236.15,560.01C236.063,561.41 236.007,562.83 235.98,564.27C235.98,564.603 236.15,599.93 236.15,599.93C236.043,600.02 235.96,600.135 235.907,600.264C235.728,600.701 236.373,604.983 236.18,605.14C235.28,605.887 234.61,611.36 235.83,613.08C236.01,613.34 236.063,613.623 235.99,613.93L235.49,616.08C235.417,616.393 235.537,616.593 235.85,616.68C236.003,616.727 236.343,626.82 235.91,626.92C235.617,626.993 235.413,629.81 235.84,629.85C235.84,629.85 235.717,631.077 235.67,631.11C233.997,632.357 235.082,646.302 234.895,646.615C234.455,647.355 235.767,692.13 235.8,692.45C235.84,692.803 237.11,702.98 237.11,702.98C236.723,703 237.298,714.064 237.432,713.937C237.585,713.11 230.265,716.507 230.431,718.454C229.411,718.001 227.027,715.331 225.961,717.091C225.581,715.851 225.723,703.817 225.83,702.43C225.997,700.15 226.077,698.857 226.07,698.55C225.897,690.577 225.757,682.6 225.65,674.62C225.58,669.46 225.01,663.67 224.87,658.17C224.85,657.177 225.06,656.19 225.5,655.21C227.34,651.11 226.89,646.16 226.95,639.5C226.98,636.01 227.79,631.67 227.65,627.5C227.417,620.633 227,584.043 227.12,582.51C227.28,580.34 227.49,578.16 227.34,575.83C227.05,571.51 227.55,566.49 227.46,563.06C227.147,550.7 227.33,541.64 228.01,535.88C228.29,533.487 228.507,530.387 228.66,526.58C228.907,520.533 229.03,517.483 229.03,517.43C230.17,502.29 229.75,490.97 229.23,473.3C229.143,470.453 229.277,466.43 229.63,461.23C230.26,451.93 229.49,442.53 228.21,433.31C227.49,428.16 227.95,423.16 227.83,417.97C227.79,416.6 227.143,405.577 227.41,403.49C227.663,401.47 227.923,399.923 228.19,398.85C228.309,398.358 228.644,397.946 229.1,397.73C233.333,395.697 245.05,396.09 245.05,396.09C245.443,395.963 245.803,396.027 246.13,396.28C246.13,396.28 258.66,397.12 262.48,396.95C263.453,396.903 264.44,397.047 265.44,397.38C266.907,397.873 267.923,398.053 268.49,397.92C273.24,396.79 277.98,397.54 282.76,397.93C284.553,398.07 286.877,398.06 289.73,397.9C295.53,397.58 301.87,398.68 306.75,398.88C311.4,399.07 316.12,399.57 320.74,398.86C324.24,398.32 337.477,397.65 339.87,397.63C342.77,397.603 344.517,397.55 345.11,397.47C348.837,396.943 352.57,396.503 356.31,396.15C358.423,395.957 360.703,396.087 363.15,396.54C368.003,397.433 372.12,397.843 375.5,397.77C393.587,397.357 409.253,397.603 422.5,398.51C426.06,398.757 429.173,398.853 431.84,398.8C436.34,398.72 439.443,398.723 441.15,398.81C447.05,399.097 452.957,399.11 458.87,398.85C459.417,398.823 459.91,398.877 460.35,399.01C464.36,400.19 479.055,400.319 480.11,400.37C483.377,400.51 486.157,400.387 488.45,400C490.77,399.6 492.82,399.587 494.6,399.96C495.1,400.067 498.067,400.387 503.5,400.92C505.8,401.14 508.43,400.65 510.53,400.9C515.13,401.433 544.648,400.513 546.174,401.163C548.229,402.038 547.92,401.85 548.6,403.31C548.94,404.023 549.507,405.453 550.3,407.6C550.78,408.893 550.823,410.363 550.43,412.01C549.897,414.197 549.567,417.25 549.44,421.17C549.32,425.03 549.1,428.237 548.78,430.79ZM490.24,401.653C489.974,401.695 490.505,401.612 490.24,401.653C490.24,401.653 490.24,401.653 490.24,401.653Z" style="fill:white;fill-rule:nonzero;"/>
        <path d="M275.22,418.6C275.62,418.42 275.82,418.25 276.29,418.24C279.957,418.113 283.61,418.23 287.25,418.59C289.55,418.82 291.83,418.21 294.25,418.43C300.743,419.01 305.44,419.21 308.34,419.03C312.887,418.757 316.367,418.78 318.78,419.1C322.58,419.6 328.55,419.39 333.06,419.83C341.207,420.637 346.603,420.9 349.25,420.62C351.917,420.347 354.02,420.3 355.56,420.48C356.88,420.633 357.553,420.71 357.58,420.71C368.473,421.39 379.357,421.29 390.23,420.41C391.63,420.297 394.007,419.673 397.36,418.54C397.947,418.34 399.41,418.307 401.75,418.44C407.39,418.75 413.26,419.3 418.66,419.45C427.56,419.71 436.463,419.907 445.37,420.04C447.797,420.073 450.38,420.227 453.12,420.5C455.693,420.76 458.27,421 460.85,421.22C462.763,421.387 468.077,421.797 476.79,422.45C481.73,422.823 487.047,422.94 492.74,422.8C502.173,422.573 511.61,422.517 521.05,422.63C523.49,422.67 526.75,422.08 529.71,422.49C530.017,422.537 530.177,422.717 530.19,423.03L530.42,428.25C530.433,428.603 530.287,428.867 529.98,429.04C528.7,429.76 527.56,430.6 526.56,431.56C519.607,438.267 514.807,442.8 512.16,445.16C511.593,445.66 511.143,446.113 510.81,446.52C509.6,447.99 508.15,448.86 506.88,450.24C506.2,450.967 505.2,451.89 503.88,453.01C502.39,454.26 501.5,455.92 500.14,457.1C497.38,459.5 494.71,461.99 492.13,464.57C489.07,467.63 485.43,469.49 482.46,472.48C479.793,475.153 476.817,477.7 473.53,480.12C473.441,480.188 473.333,480.224 473.221,480.224C472.977,480.224 472.766,480.049 472.72,479.81C472.3,477.55 473.14,475.52 472.98,473.41C472.767,470.703 472.557,468 472.35,465.3C472.197,463.273 472.22,460.573 472.42,457.2C472.747,451.793 472.333,446.427 471.18,441.1C470.91,439.85 471.24,438.92 471.29,437.69C471.31,437.263 471.7,436.475 470.691,435.282C469.658,434.058 465.208,432.979 463.649,433.621C459.519,435.323 456.44,438.773 452.74,441.24C452.047,441.7 440.417,450.6 440.09,450.78C437.82,452.02 418.227,466.723 416.48,468.33C414.86,469.823 413.613,470.827 412.74,471.34C409.873,473.027 406.223,475.673 405.91,475.86C401.777,478.387 397.97,481.23 394.49,484.39C394.388,484.483 394.274,484.561 394.15,484.622C393.417,484.984 392.514,484.675 392.15,483.937C392.089,483.815 392.046,483.684 392.02,483.55C391.73,481.97 391.33,479.91 391.34,478.04C391.367,472.453 391.583,466.877 391.99,461.31C392.203,458.43 392.323,455.427 392.35,452.3C392.41,446.7 392.467,443.683 392.52,443.25C392.687,441.937 392.87,440.663 393.07,439.43C393.118,439.145 392.167,438.438 389.691,438.173C387.053,437.892 379.55,440.1 377.78,440.9C373.31,442.92 368.71,444.34 365.5,448.25C364.587,449.363 363.48,450.417 362.18,451.41C360.387,452.79 357.133,455.54 352.42,459.66C345.033,466.12 335.05,474.13 322.47,483.69C320.46,485.22 318.97,483.19 319.51,481.29C319.923,479.803 320.153,478.29 320.2,476.75C320.513,465.497 320.377,454.25 319.79,443.01C319.597,439.357 318.563,435.993 316.69,432.92C316.55,432.687 316.243,432.607 316,432.74C314.82,433.413 313.853,434.313 313.1,435.44C312.913,435.713 312.66,435.897 312.34,435.99C310.04,436.64 308.5,438.13 306.27,438.93C303.35,439.99 301.11,442.16 298.67,443.37C294.937,445.223 292.667,446.637 291.86,447.61C291.22,448.39 290.56,449.46 289.34,450.02C287.607,450.82 286.297,451.53 285.41,452.15C281.41,454.963 277.383,457.737 273.33,460.47C269.77,462.87 265.68,465.08 261.79,467.37C260.51,468.123 258.887,468.867 256.92,469.6C253.9,470.72 251.093,472.2 248.5,474.04C248.306,474.18 248.073,474.255 247.834,474.255C247.209,474.255 246.694,473.74 246.694,473.115C246.694,473.076 246.696,473.038 246.7,473C247.21,468 246.8,462.71 247.17,458.02C247.63,452.227 247.877,446.43 247.91,440.63C247.917,439.07 248.09,435.99 248.43,431.39C248.657,428.303 248.613,425.207 248.3,422.1C248.13,420.49 247.62,419.71 247.48,418.44C247.44,418.047 247.61,417.81 247.99,417.73L250.71,417.16C250.969,417.108 251.238,417.147 251.47,417.27C254.21,418.72 256.49,416.92 259.25,417.46C260.697,417.747 262.147,417.877 263.6,417.85C264.527,417.83 265.963,417.873 267.91,417.98C269.39,418.06 270.863,417.9 272.33,417.5C272.657,417.413 272.97,417.44 273.27,417.58C273.717,417.793 274.11,418.083 274.45,418.45C274.67,418.683 274.927,418.733 275.22,418.6ZM278,420.26C277.43,420.256 278.571,420.264 278,420.26C278,420.26 278,420.26 278,420.26Z" style="fill:white;fill-rule:nonzero;"/>
        <path d="M381.073,680.645C381.073,680.645 392.417,677.997 391.97,677.69C391.697,677.497 391.607,677.24 391.7,676.92C392.613,673.6 392.99,670.227 392.83,666.8C392.817,666.467 392.723,666.157 392.55,665.87C392.377,665.583 392.237,665.28 392.13,664.96C392.043,664.693 392.043,664.393 392.13,664.06C394.27,655.97 393.75,649.66 392.43,641.15C392.123,639.19 391.967,637.243 391.96,635.31C391.953,633.35 391.927,631.393 391.88,629.44C391.847,628.147 391.647,626.203 391.28,623.61C390.91,621.01 390.91,618.12 390.6,615.76C390.073,611.78 389.503,607.81 388.89,603.85C388.48,601.17 389.63,599.09 389.54,596.42C389.233,587.267 389.313,579.21 389.78,572.25C391.033,553.357 391.46,535.83 391.06,519.67C391.04,518.943 390.793,516.42 390.32,512.1C390.04,509.56 390.057,507.01 390.37,504.45C390.45,503.797 390.507,502.19 390.54,499.63C390.593,496.383 392.073,494.213 394.98,493.12C397.653,492.12 399.117,491.547 399.37,491.4C402.797,489.427 405.837,486.997 408.49,484.11C411.217,481.137 412.977,479.293 413.77,478.58C416.57,476.06 418.533,474.423 419.66,473.67C423.56,471.057 428.643,467.223 434.91,462.17C435.917,461.363 437.907,459.943 440.88,457.91C441.82,457.27 443.24,456.147 445.14,454.54C447.01,452.96 449.31,451.58 451.02,450.23C453.86,447.983 456.72,445.763 459.6,443.57C460.87,442.59 461.51,440.97 463.08,440.16C463.195,440.101 463.322,440.07 463.451,440.07C463.895,440.07 464.261,440.436 464.261,440.88C464.261,440.893 464.261,440.907 464.26,440.92C464.133,443.6 464.35,450.19 464.36,451.5C464.473,462.467 464.083,473.41 463.19,484.33C462.94,487.41 461.777,489.596 465,491.649C466.787,492.787 468.88,492.323 469.2,492.19C474.693,489.983 479.45,486.767 483.47,482.54C486.23,479.633 487.637,478.153 487.69,478.1C496.163,469.86 502.097,464.41 505.49,461.75C507.157,460.45 508.527,459.313 509.6,458.34C509.94,458.033 511.113,457.06 513.12,455.42C514.75,454.08 515.9,452.29 517.43,451.02C519.183,449.573 520.923,448.113 522.65,446.64C524.23,445.29 525.38,443.46 527.01,442.02C528.09,441.073 528.55,441.313 528.39,442.74C528.11,445.18 528.24,447.72 528.79,450.41C530.037,456.503 530.483,462.553 530.13,468.56C529.777,474.627 528.857,488.47 527.37,510.09C526.94,516.3 527.47,522.23 527.23,528.35C527.03,533.57 527.05,538.787 527.29,544C527.69,552.46 527.35,561.13 527.75,569.32C527.997,574.373 528.147,579.433 528.2,584.5C528.21,585.44 528.71,586.51 528.57,587.69C528.02,592.19 528.48,597.01 528.22,601.09C527.967,604.977 527.853,608.867 527.88,612.76C527.9,615.63 527.14,618.67 527.15,621.75C527.17,625.99 527.247,629.26 527.38,631.56C527.553,634.673 527.553,637.93 527.38,641.33C527.08,647.26 526.713,672.273 526.5,674.3C526.31,676.13 527.16,677.44 527,679.23C526.473,685.15 526.24,691.07 526.3,696.99C526.32,698.943 526.798,702.022 526.087,703.393C525.581,704.371 521.33,704.49 520.01,704.39C516.797,704.15 513.867,704.143 511.22,704.37C507.6,704.67 503.33,704.29 499.37,704.44C497.937,704.493 459.287,703.197 459.06,702.81C459.06,702.81 457.5,702.87 457.26,702.89C454.287,703.143 451.457,703.31 448.77,703.39C448.103,703.41 447.337,703.263 446.47,702.95C446.161,702.841 445.825,702.852 445.53,702.98C444.71,703.327 443.64,703.393 442.32,703.18C439.59,702.74 436.95,703.19 434.18,702.84C432.55,702.64 430.86,703.19 429.49,702.93C426.49,702.363 381.383,700.678 381.05,700.658L381.073,680.645ZM440.41,668.73C440.39,670.68 439.737,680.153 439.37,681.06C439.183,681.547 439.29,682.283 439.69,683.27C439.882,683.752 443.076,682.973 444.964,682.466C445.836,682.232 446.455,681.46 446.494,680.558C446.526,679.83 446.511,679.089 446.38,678.93L445.63,678.02C445.39,677.733 446.173,668.573 446.3,667.88C446.64,666.033 445.573,639.27 445.38,633.45C445.359,632.751 445.876,632.142 446.57,632.05C449.97,631.6 452.09,629.56 455.11,626.9C456.077,626.047 457.543,626.047 458.51,626.9C461.08,629.17 462.52,632.11 463.02,635.57C464.42,645.32 464.59,655.58 463.86,665.46C463.587,669.14 463.407,672.83 463.32,676.53C463.267,678.477 463.487,680.593 463.98,682.88C464.433,684.987 467.847,688.427 468.2,688.22L469.49,687.48C469.706,687.358 469.84,687.124 469.84,686.87C469.847,686.543 469.737,686.137 469.51,685.65C469.373,685.356 469.321,685.026 469.36,684.7C469.64,682.067 469.66,679.643 469.42,677.43C468.92,672.78 469.81,668.68 469.52,663.84C469.36,661.2 469.327,658.983 469.42,657.19C469.807,650.077 470.04,644.38 470.12,640.1C470.26,632.98 468.62,627.03 463.14,622.58C460.75,620.64 458.95,621.05 455.62,621.15C454.46,621.183 453.05,621.727 451.39,622.78C449.897,623.727 448.193,624.447 446.28,624.94C446.224,624.954 446.167,624.961 446.11,624.961C445.731,624.961 445.42,624.65 445.42,624.271C445.42,624.264 445.42,624.257 445.42,624.25L445.8,613.33C445.827,612.597 446.023,612.547 446.39,613.18L446.72,613.76C446.913,614.1 447.203,614.277 447.59,614.29C451.87,614.483 456.483,614.783 461.43,615.19C464.61,615.45 466.83,616.063 468.09,617.03C472.89,620.73 474.07,624.67 476.15,631.21C476.857,633.437 477.207,635.95 477.2,638.75C477.18,644.12 477.22,651.82 476.73,659.41C476.51,662.797 476.38,666.493 476.34,670.5C476.32,672.307 476.08,674.48 475.62,677.02C475.4,678.213 475.803,680.603 476.83,684.19C477.243,685.657 477.49,687.21 477.57,688.85C477.589,689.197 481.65,686.04 481.65,686.04C481.79,685.76 481.853,685.46 481.84,685.14C481.8,683.98 481.933,682.843 482.24,681.73C482.66,680.223 482.89,679.087 482.93,678.32C483.27,671.84 483.533,667.2 483.72,664.4C483.9,661.5 483.52,658.2 483.61,655.81C483.863,649.243 483.923,645.113 483.79,643.42C483.443,638.847 482.967,634.277 482.36,629.71C480.7,617.21 472.77,610.38 460.94,607.79C456.813,606.883 452.623,606.517 448.37,606.69C447.441,606.725 446.695,607.499 446.695,608.429C446.695,608.473 446.697,608.516 446.7,608.56C446.767,609.407 446.583,610.04 446.15,610.46C445.863,610.733 445.71,610.673 445.69,610.28C445.517,607.347 445.64,604.423 446.06,601.51C446.43,598.94 445.37,596.84 445.84,594.53C446.107,593.197 446.477,591.877 446.95,590.57C447.283,589.637 447.923,589.317 448.87,589.61C450.05,589.983 451.25,590.4 452.47,590.86C456.19,592.27 460.83,592.34 464.78,592.81C467.54,593.143 470.373,593.72 473.28,594.54C477.26,595.673 481.27,596.73 485.31,597.71C486.497,597.999 487.595,598.583 488.5,599.41C491.37,602 494.68,604.49 496.93,607.79C498.18,609.62 500.15,611.92 500.85,613.98C501.99,617.34 502.52,622.11 504.25,631.49C504.877,634.89 505.267,638.173 505.42,641.34C505.627,645.74 505.697,649.043 505.63,651.25C505.217,664.183 505.08,673.107 505.22,678.02C505.24,678.687 505.727,681.35 505.56,681.53C505.32,681.777 505.29,682.05 505.47,682.35C506.157,683.477 506.133,684.563 505.4,685.61C505.207,685.877 505.2,686.147 505.38,686.42C506.067,687.46 506.43,688.053 506.47,688.2C507.37,691.393 508.31,691.403 509.29,688.23C509.63,687.15 509.973,685.813 510.32,684.22C510.393,683.9 510.58,683.683 510.88,683.57C511.467,683.35 511.817,682.95 511.93,682.37C511.997,682.03 511.58,676.89 511.57,676.03C511.523,670.943 511.41,665.857 511.23,660.77C511.13,657.963 511.243,654.63 511.57,650.77C512.15,643.84 512.19,636.64 510.78,629.81C509.91,625.62 509.78,621.91 509.3,617.85C509.09,616.11 508.56,614.75 507.99,613.12C507.09,610.5 505.3,608.2 503.91,605.76C503.75,605.467 507.197,595.867 508.17,592.92C510.097,587.073 511.95,581.203 513.73,575.31C515.82,568.34 514.6,564.46 512.57,556.83C512.117,555.137 511.423,553.453 510.49,551.78C508.93,548.967 508.087,547.4 507.96,547.08C507.173,545.073 505.873,543.1 504.06,541.16C501.51,538.44 499.47,533.88 496.58,531.04C488.64,523.25 479.27,520.84 467.92,520.07C463.987,519.803 459.39,520.333 454.13,521.66C446.417,523.6 441.58,524.913 439.62,525.6C437.527,526.327 435.347,527.8 433.08,530.02C431.86,531.22 430.547,532.247 429.14,533.1C426.86,534.487 425.007,535.92 423.58,537.4C421.167,539.913 419.583,541.613 418.83,542.5C414.38,547.76 414.09,551.9 412.31,558.87C411.597,561.65 411.07,564.597 410.73,567.71C408.817,585.237 407.97,600.607 408.19,613.82C408.34,622.99 408.11,632.58 408.39,642.14C408.523,646.6 408.44,650.2 408.14,652.94C407.733,656.727 407.553,659.497 407.6,661.25C407.63,662.55 406.95,663.83 406.92,665.24C406.813,669.9 406.61,674.56 406.31,679.22C406.283,679.607 412.34,685.34 412.46,683.85C412.66,681.357 412.763,678.86 412.77,676.36C412.78,674.56 413.37,672.66 413.31,671C413.177,667.727 413.08,664.453 413.02,661.18C412.99,659.61 412.62,657.45 412.82,655.48C412.973,653.993 412.983,652.673 412.85,651.52C412.683,650.047 412.667,648.707 412.8,647.5C413.68,639.667 413.797,632.25 413.15,625.25C413.037,624.063 413.163,621.26 413.53,616.84C413.557,616.487 413.49,611.23 413.15,609.3C412.63,606.31 412.93,603.58 412.67,599.88C412.55,598.187 412.557,596.427 412.69,594.6C412.883,591.893 412.993,589.177 413.02,586.45C413.04,584.023 413.253,581.407 413.66,578.6C414.053,575.833 414.31,573.213 414.43,570.74C414.55,568.26 416.043,562.89 418.91,554.63C420.51,550.01 422.41,546.507 424.61,544.12C427.643,540.82 430.52,537.76 433.24,534.94C434.31,533.831 435.64,533.003 437.11,532.53C442.417,530.85 445.66,529.77 446.84,529.29C452.37,527.05 457.21,526.76 464.24,525.47C467.167,524.93 469.693,524.79 471.82,525.05C478.54,525.89 482.82,527.83 489.37,532C491.93,533.63 494.16,536.14 496.61,537.94C498.743,539.5 500.103,540.86 500.69,542.02C501.29,543.193 501.773,545.05 502.14,547.59C502.48,549.923 503.86,553.837 506.28,559.33C507,560.977 507.357,562.57 507.35,564.11C507.31,571.297 506.08,578.1 503.66,584.52C502.82,586.74 501.353,590.08 499.26,594.54C498.847,595.433 498.017,596.55 496.77,597.89C496.597,598.077 496.427,598.07 496.26,597.87C496.26,597.87 495.9,595.356 495.98,595.14C497.13,592.12 498.87,589.24 499.79,586.52C501.543,581.373 502.757,576.097 503.43,570.69C503.723,568.337 503.62,565.897 503.12,563.37C502.407,559.803 501.817,557.413 501.35,556.2C500.123,552.987 499.04,549.723 498.1,546.41C497.733,545.123 497.147,543.953 496.34,542.9C495.907,542.333 494.95,541.697 493.47,540.99C491.15,539.87 490.27,537.75 488.45,536.45C486.737,535.23 484.97,534.083 483.15,533.01C480.97,531.72 478.36,531.24 475.93,530.03C473.62,528.88 471.88,529.12 469.46,528.99C465.12,528.77 460.57,530.36 456.32,531.24C453.213,531.88 450.723,532.583 448.85,533.35C445.737,534.63 443.487,535.96 442.1,537.34C436.95,542.47 431.65,546.99 428.34,553.82C427.07,556.43 425.41,557.72 424.77,560.79C424.33,562.877 423.8,564.943 423.18,566.99C422.14,570.45 422.29,574.16 421.55,577.79C420.63,582.343 420.16,586.943 420.14,591.59C420.133,593.757 420.073,596.53 419.96,599.91C419.887,602.163 419.883,604.943 419.95,608.25C420.083,614.903 419.35,627.593 417.75,646.32C417.743,646.387 417.567,649.007 417.22,654.18C416.82,660.05 416.02,666.01 415.69,673.02C415.48,677.45 416.13,680.94 418.09,684.66C418.77,685.96 419.303,685.9 419.69,684.48C420.277,682.307 420.76,680.597 421.14,679.35C421.58,677.917 421.713,676.513 421.54,675.14C420.773,669.047 420.613,664.187 421.06,660.56C422.153,651.593 422.81,644.41 423.03,639.01C423.103,637.17 423.24,635.393 423.44,633.68C423.653,631.853 423.703,630.083 423.59,628.37C423.23,623.123 423.45,617.167 424.25,610.5C424.61,607.527 424.54,602.633 424.04,595.82C423.85,593.32 424.66,591.1 424.42,588.42C424.05,584.14 423.54,577.53 425.27,573.54C426.703,570.253 427.81,567.1 428.59,564.08C429.25,561.5 431.25,559.19 432.4,556.77C435.08,551.15 437.38,546.9 439.3,544.02C439.687,543.433 440.47,542.903 441.65,542.43C443.083,541.857 445.687,540.833 449.46,539.36C450.733,538.867 452.603,537.883 455.07,536.41C458.47,534.377 462.18,533.223 466.2,532.95C469.31,532.74 472.22,534.14 475.21,534.84C477.277,535.327 479.127,536.09 480.76,537.13C482.913,538.51 485.907,540.37 489.74,542.71C490.438,543.14 490.991,543.763 491.33,544.5C493.72,549.71 496.35,554.27 496.91,560.77C497.317,565.463 497.427,570 497.24,574.38C497.14,576.693 496.633,578.863 495.72,580.89C494.28,584.077 492.51,587.297 490.41,590.55C489.86,591.4 489.94,591.58 489.78,592.69C489.727,593.07 489.54,593.153 489.22,592.94L486.43,591.09C485.947,590.774 485.796,590.123 486.09,589.62C489.017,584.707 490.247,579.517 489.78,574.05C489.46,570.25 489.55,566.5 487.63,562.97C486.017,559.99 484.48,556.96 483.02,553.88C482.52,552.827 481.78,551.753 480.8,550.66C479.86,549.6 478.997,548.463 478.21,547.25C478.01,546.957 477.747,546.743 477.42,546.61L469.17,543.35C468.843,543.223 468.517,543.233 468.19,543.38C465.51,544.59 462.91,543.5 460.77,543.64C456.88,543.91 452.89,543.88 449.56,545.98C445.17,548.75 442.37,552.63 439.12,556.57C437.673,558.317 436.513,560.13 435.64,562.01C432.89,567.92 430.15,573.97 430.87,580.21C431.08,582.01 430.35,583.79 430.33,585.59C430.283,590.763 430.017,594.987 429.53,598.26C428.91,602.4 428.67,606.12 428.81,609.42C428.923,612.107 428.837,616.573 428.55,622.82C428.31,628.127 428.17,632.583 428.13,636.19C427.983,648.73 427.49,661.26 426.65,673.78C426.48,676.34 427.33,678.01 427.5,680.26C427.519,680.541 427.657,680.802 427.88,680.98C430.74,683.2 434.05,682.383 434.39,679.77C434.66,677.67 434.01,675.83 433.67,673.75C433.45,672.45 433.433,670.943 433.62,669.23C434.06,665.217 434.057,661.26 433.61,657.36C433.243,654.14 433.103,651.383 433.19,649.09C433.463,641.857 433.207,634.61 432.42,627.35C432.273,625.97 432.343,624.583 432.63,623.19C433.037,621.223 433.253,619.827 433.28,619C433.613,608.447 434.077,597.893 434.67,587.34C434.683,587.027 434.623,586.73 434.49,586.45L433.22,583.78C433.067,583.46 433.043,583.13 433.15,582.79C434.65,578.1 435.62,573.24 437.55,568.84C440.097,563.013 441.69,559.39 442.33,557.97C443.13,556.19 443.9,555.08 444.64,554.64C450.9,550.92 456.21,548.823 460.57,548.35C463.79,548.003 466.103,548.133 467.51,548.74C473.443,551.32 477.853,555.5 480.74,561.28C481.48,562.76 482.413,566.34 483.54,572.02C483.94,574.027 484.047,575.86 483.86,577.52C483.633,579.513 483.253,581.337 482.72,582.99C481.707,586.143 481.535,589.928 480.558,589.814C480.14,589.765 479.59,589.347 479.19,589.24L470.43,586.88C470.391,586.87 470.353,586.855 470.317,586.837C470.017,586.688 469.896,586.315 470.048,586.01C470.065,585.975 470.086,585.941 470.11,585.91C470.737,585.097 471.603,584.55 472.71,584.27C473.023,584.19 473.237,583.997 473.35,583.69C474.183,581.423 475.53,579.877 477.39,579.05C478.217,578.683 478.507,578.067 478.26,577.2C477.047,572.987 475.22,568.923 472.78,565.01C472.615,564.737 472.337,564.55 472.02,564.5C470.4,564.24 468.877,563.433 467.45,562.08C467.228,561.871 466.954,561.732 466.66,561.68C464.8,561.32 463.497,560.32 462.75,558.68C462.603,558.36 462.357,558.2 462.01,558.2C461.597,558.2 461.203,558.303 460.83,558.51C460.563,558.657 460.28,558.71 459.98,558.67C452.69,557.64 447.79,561.58 445.55,568.3C444.963,570.067 444.28,571.653 443.5,573.06C439.38,580.49 440.55,590.49 441.32,598.75C441.44,599.983 441.327,604.097 440.98,611.09C440.787,615.143 440.72,619.247 440.78,623.4C440.953,635.487 440.667,645.277 439.92,652.77C439.687,655.117 439.737,657.767 440.07,660.72C440.337,663.127 440.45,665.797 440.41,668.73ZM492.98,687.23C492.98,687.23 495.477,687.493 495.05,687.28C494.83,686.76 494.843,686.34 495.09,686.02C496.15,684.64 497.07,683.08 497.85,681.34C498.403,680.1 498.213,674.39 498.12,671.75C498.107,671.43 497.957,668.067 497.95,667.74C497.83,662.82 497.44,657.98 497.63,653.06C498.07,641.96 498.11,632.03 495.19,622.35C493.07,615.32 491.81,610.98 486.23,607.28C478.19,601.94 469.9,599.88 460.37,598.73C456.76,598.3 453.34,596.7 450.59,595.94C449.59,595.66 448.623,596.03 447.69,597.05C447.677,597.07 447.633,597.163 447.56,597.33C447.073,598.437 447.417,599.133 448.59,599.42C451.463,600.12 453.42,600.627 454.46,600.94C457.587,601.867 459.613,602.427 460.54,602.62C472.04,605.02 485.19,609.57 488.34,621.73C489.673,626.857 490.56,632.117 491,637.51C491.533,643.97 491.683,649.567 491.45,654.3C491.137,660.5 490.863,665.44 490.63,669.12C490.577,670.02 490.727,671.383 491.08,673.21C491.33,674.49 490.87,675.22 490.33,676.29C490.183,676.59 490.17,676.897 490.29,677.21C491.23,679.54 492.23,682.1 491.54,683.9C491.427,684.193 491.437,684.48 491.57,684.76L492.58,686.87C492.664,687.037 492.807,687.166 492.98,687.23ZM501.848,667.547C501.318,667.367 502.377,667.728 501.848,667.547C501.848,667.547 501.848,667.547 501.848,667.547ZM448.066,681.619C447.777,682.142 448.355,681.095 448.066,681.619L448.066,681.619Z" style="fill:white;fill-rule:nonzero;"/>
        <path d="M384.8,686.08C385.54,686.073 385.973,686.653 386.1,687.82C384.687,689.36 383.84,690.77 383.56,692.05C383.753,692.75 383.477,693.327 382.73,693.78C381.417,692.767 382.273,695.977 382.68,695.85C383.213,695.677 383.63,695.707 383.93,695.94C384.03,696.02 384.067,696.387 384.04,697.04C384.02,697.467 384.013,697.887 384.02,698.3C384.02,698.667 384.207,698.863 384.58,698.89L386.42,698.99C388.887,699.983 391.51,700.32 394.29,700C394.51,699.973 394.623,700.07 394.63,700.29L394.65,700.83C394.657,701.003 394.577,701.107 394.41,701.14L390.69,701.92C385.017,701.027 379.313,700.52 373.58,700.4C373.353,700.4 371.897,700.51 369.21,700.73C368.21,700.817 367.213,700.79 366.22,700.65C365.16,700.51 364.19,700.517 363.31,700.67C360.417,701.19 357.34,701.337 354.08,701.11C354.038,701.107 353.996,701.102 353.954,701.096C353.005,700.956 351.558,701.498 350.66,701.5C348.433,701.513 346.263,701.463 344.15,701.35C343.443,701.31 342.02,701.42 339.88,701.68C337.79,701.93 336.09,701.27 334.04,701.5C331.48,701.78 328.957,701.597 326.47,700.95C326.15,700.87 325.833,700.887 325.52,701C321.7,702.37 318.7,701.21 314.97,701.57C313.097,701.743 311.233,701.7 309.38,701.44C308.413,701.3 307.323,701.27 306.11,701.35C305.01,701.417 303.903,701.36 302.79,701.18C302.73,700.567 278.43,699.103 278.33,700.37C278.303,700.703 276.36,700.23 275.39,700.26C271.963,700.387 268.753,700.59 265.76,700.87C264.18,701.017 264.087,700.69 263.76,700.73C262.09,700.93 260.68,700.35 259.08,700.52C256.38,700.827 253.93,700.837 251.73,700.55C251.19,700.477 249.813,699.6 249.88,700.08C249.313,700.387 247.867,700.79 245.54,701.29C244.713,701.463 241.583,701.383 241.59,701.05C241.65,698.997 241.853,696.967 242.2,694.96C242.573,692.767 242.703,690.773 242.59,688.98C242.343,685.14 242.237,681.3 242.27,677.46C242.283,676.427 242.243,674.133 242.15,670.58C242.04,666.28 242.72,661.97 242.72,657.82C242.73,654.19 243.16,650.99 242.28,647.1C241.92,645.513 241.727,643.92 241.7,642.32C241.64,639.1 241,636.26 241.63,633.03C241.75,632.43 241.84,627.093 241.9,617.02C241.907,616.58 242.117,615.51 242.53,613.81C242.723,613.037 242.747,612.237 242.6,611.41C242.433,610.443 242.387,609.673 242.46,609.1C242.867,605.867 242.74,581.237 242.54,578.07C242.31,574.45 243.56,571.37 243.09,567.61C242.91,566.15 243.31,564.9 243.36,563.38C243.54,557.927 243.683,554.657 243.79,553.57C243.937,552.143 243.95,550.097 243.83,547.43C243.71,544.6 244.26,541.56 244.33,539.17C244.443,535.777 244.607,532.377 244.82,528.97C244.867,528.277 244.887,527.63 244.88,527.03C244.86,523.47 244.85,521.607 244.85,521.44C244.87,519.6 245.043,517.767 245.37,515.94C245.803,513.507 245.843,511.443 245.49,509.75C245.417,509.403 245.237,508.9 244.95,508.24C244.827,507.942 244.806,507.614 244.89,507.31C246.397,501.923 246.32,496.63 244.66,491.43C244.56,491.11 244.583,490.8 244.73,490.5C245.25,489.46 246.047,488.663 247.12,488.11C251.27,485.98 255.81,484.76 259.04,481.01C259.26,480.757 259.53,480.58 259.85,480.48C260.92,480.15 261.7,479.92 262.57,479.17C265.357,476.737 267.033,475.263 267.6,474.75C269.2,473.297 271.04,472.113 273.12,471.2C275.54,470.14 278.47,468.76 280.94,467.13C285.52,464.123 290.103,461.123 294.69,458.13C300.38,454.42 305.46,453.09 308.39,446.21C309.17,444.37 310.047,444.297 311.02,445.99C311.207,446.317 311.347,447.137 311.44,448.45C311.587,450.49 311.493,453.507 311.16,457.5C310.82,461.653 310.637,464.663 310.61,466.53C310.51,474.62 310.09,481.62 311.37,490.49C311.57,491.91 312.47,492.93 312.83,494.39C312.917,494.723 314.967,495.153 315.3,495.18C316.74,495.31 317.82,494.89 319.25,494.55C323.81,493.46 327.22,490.28 330.84,487.53C332.367,486.363 333.977,484.84 335.67,482.96C340.32,477.81 346.16,474.41 351.66,470.63C351.713,470.597 353.793,469.007 357.9,465.86C360.567,463.82 363.943,462 368.03,460.4C369.097,459.987 370.057,459.497 370.91,458.93C370.985,458.881 371.066,458.842 371.151,458.816C371.654,458.659 372.198,458.948 372.356,459.456C372.383,459.542 372.397,459.631 372.4,459.72C372.43,461.63 371.58,463.11 371.5,464.86C371.36,468.147 371.25,471.433 371.17,474.72C371.163,474.8 370.937,477.813 370.49,483.76C370.223,487.26 370.407,490.75 371.04,494.23C371.58,497.21 371.07,499.91 371.18,502.5C371.427,508.133 370.017,530.923 370.05,532.75C370.33,547.083 370.573,561.417 370.78,575.75C370.88,582.297 370.82,587.797 370.6,592.25C370.413,596.07 370.36,599.233 370.44,601.74C370.67,608.86 370.38,613.86 370.59,619.92C370.717,623.607 370.75,626.493 370.69,628.58C370.423,638.727 370.16,648.873 369.9,659.02C369.82,662.04 372.546,681.578 372.546,681.578C372.58,681.619 378.76,680.87 381.44,680.59C382.251,680.508 382.992,681.092 383.1,681.9C383.32,683.473 383.887,684.867 384.8,686.08ZM265.9,661.75C266.272,644.449 267.798,652.034 267.798,652.034C267.338,655.904 267.16,669.5 267.53,672.76C267.68,674.04 268.44,675.59 267.92,677.34C267.821,677.662 267.797,678.004 267.85,678.34C267.897,678.633 268.213,680.573 268.8,684.16C269.02,685.54 268.312,686.622 268.479,687.37C268.721,688.456 270.176,687.962 271.17,687.86C271.548,687.821 277.297,688.103 276.61,690.21C276.503,690.543 276.617,690.647 276.95,690.52C278.063,690.107 280.027,689.955 281.474,689.308C282.284,688.948 284.459,688.173 284.97,687.795C286.261,686.841 286.35,673.017 286.67,671.35C288.11,663.717 288.517,656.11 287.89,648.53C287.73,646.603 287.92,642.893 288.46,637.4C288.58,636.193 288.56,634.957 288.4,633.69C288.02,630.55 287.49,627.68 287.43,624.45C287.377,621.583 287.197,618.723 286.89,615.87C286.49,612.17 286.72,608.95 286.88,605.38C286.96,603.613 287.31,601.013 287.93,597.58C288.477,594.533 288.727,591.457 288.68,588.35C288.64,585.33 289.24,582.32 289.26,579.75C289.307,573.717 289.343,567.683 289.37,561.65C289.38,559.06 289.85,555.7 289.63,552.95C289.543,551.877 289.67,550.097 290.01,547.61C290.59,543.32 289.23,540.43 287.72,536.73C287.464,536.097 286.846,535.681 286.163,535.681C285.535,535.681 284.958,536.032 284.67,536.59C283.917,538.037 283.547,539.703 283.56,541.59C283.613,549.883 283.537,558.173 283.33,566.46C283.23,570.693 282.737,579.197 281.85,591.97C281.377,598.777 281.247,605.597 281.46,612.43C281.51,613.77 281.03,615.2 281.25,616.71C281.45,618.063 281.507,619.1 281.42,619.82C280.93,623.83 281.38,628.1 281.24,631.72C281.113,634.807 281.073,638.567 281.12,643C281.18,648.94 280.673,655.21 279.6,661.81C279.267,663.877 278.737,665.693 278.01,667.26C277.877,667.547 277.803,667.85 277.79,668.17L277.18,682.72C277.177,682.801 277.146,687.137 277.133,687.218C276.205,692.979 272.35,688.715 273.136,688.122C273.656,687.715 273.54,673.037 273.38,672.75C272.727,671.543 272.537,670.463 272.81,669.51C273.297,667.797 273.52,666.27 273.48,664.93C273.39,662.08 274.07,659.11 273.69,656.32C273.457,654.593 273.387,653.193 273.48,652.12C273.947,646.687 273.843,640.98 273.17,635C273.137,634.667 273.18,634.343 273.3,634.03C274.12,631.97 274.397,629.937 274.13,627.93C273.343,622.01 274.057,602.383 274.29,599.77C274.717,595.03 274.843,589.023 274.67,581.75C274.643,580.423 274.873,578.687 275.36,576.54C276.65,570.83 276.72,564.76 277.16,558.92C277.37,556.15 276.56,553.52 276.79,550.74C277.197,545.92 277.767,541.283 278.5,536.83C278.913,534.317 277.957,532.547 275.63,531.52C274.817,531.16 274.33,530.957 274.17,530.91C271.763,530.25 270.613,531.153 270.72,533.62L271.67,555.92C271.683,556.267 271.773,556.587 271.94,556.88C271.94,556.88 270.79,562.36 271.19,564.48C271.737,567.333 271.683,570.17 271.03,572.99C270.69,574.463 270.843,578.567 271.49,585.3C271.523,585.627 271.417,585.903 271.17,586.13C270.437,586.81 270.123,587.547 270.23,588.34C270.81,592.42 270.16,596.5 269.37,600.52C269.077,602.02 268.82,607.84 268.82,607.84C268.746,607.939 268.686,608.048 268.644,608.164C268.391,608.866 269.353,619.95 268.92,621.23C268.687,621.923 268.299,648.68 268.2,649.408C267.445,654.997 265.908,661.035 266.055,660.128C266.445,657.698 266.89,617.21 266.32,614.57C265.887,612.577 265.857,610.59 266.23,608.61C266.557,606.897 266.66,605.473 266.54,604.34C266.313,602.193 266.213,600.747 266.24,600C266.54,591.34 266.65,585.59 266.57,582.75C266.557,582.223 266.04,576.85 266.13,575.36C266.45,570.16 267.18,564.94 267.21,559.89C267.263,550.797 267.7,541.133 268.52,530.9C268.693,528.74 267.697,527.707 265.53,527.8L264.39,527.85C262.303,527.937 261.067,529.007 260.68,531.06C260.18,533.693 260.013,536.063 260.18,538.17C260.253,539.117 260.14,540.16 259.84,541.3C259.28,543.41 259.67,547.62 259.59,548.99C259.277,553.943 259,558.897 258.76,563.85C258.68,565.44 258.22,566.67 257.89,568.22C257.823,568.547 257.84,568.873 257.94,569.2C258.553,571.187 258.587,573.043 258.04,574.77C257.853,575.363 258.03,575.503 258.57,575.19L258.5,576.98C258.213,577.22 258.03,577.523 257.95,577.89C257.63,579.383 257.54,580.88 257.68,582.38C257.86,584.26 257.9,585.68 257.8,586.64C257.327,591.333 257.12,596.03 257.18,600.73C257.247,605.863 257.243,609.523 257.17,611.71C257.01,616.39 257.1,621.12 256.56,625.78C256.447,626.76 256.443,627.797 256.55,628.89C256.817,631.637 256.877,634.667 256.73,637.98C256.67,639.31 257.18,655.4 256.83,658.09C256.103,663.77 256.74,677.78 257.02,679.23C257.087,679.557 257.07,679.88 256.97,680.2C256.33,682.18 258.679,685.103 259.134,685.388C259.417,685.565 260.587,685.733 260.72,685.42C261.493,683.593 262.823,682.073 264.71,680.86C266.443,679.747 265.997,674.227 265.61,673.22C265.497,672.913 265.63,668.33 265.98,666.26C266.227,664.76 265.867,663.286 265.9,661.75ZM319.63,549.25C319.503,548.35 321.063,549.237 321.43,549.21C328.823,548.643 333.347,548.483 335,548.73C341,549.637 344.493,553.063 345.48,559.01C346.74,566.59 348.67,574.39 349.07,581.71C349.417,588.083 349.47,594.473 349.23,600.88C349.17,602.31 349.76,603.86 349.45,605.41C349.063,607.33 348.867,608.407 348.86,608.64C348.72,612.367 348.483,616.09 348.15,619.81C347.17,630.76 347.2,641.69 346.89,652.63C346.883,652.73 346.92,652.813 347,652.88C347.08,652.94 347.173,655.097 347.16,655.21C346.38,660.95 345.817,666.77 345.47,672.67C345.377,674.25 345.333,675.113 345.34,675.26C345.48,678.02 345.657,680.79 345.87,683.57C345.897,683.917 346.057,684.19 346.35,684.39C347.717,685.297 348.707,686.497 349.32,687.99C349.527,688.483 349.667,688.463 349.74,687.93C350.013,685.917 350.493,684.127 351.18,682.56C352.373,679.847 353.057,678.173 353.23,677.54C354.563,672.64 355.107,667.627 354.86,662.5C354.493,655.087 354.203,648.587 353.99,643C353.823,638.727 354.023,632.42 354.59,624.08C354.78,621.18 354.65,617.86 354.62,614.75C354.62,614.063 354.727,611.73 354.94,607.75C355.15,603.71 354.5,599.18 354.42,595.74C354.313,591.693 354.11,587.64 353.81,583.58C353.783,583.247 353.677,582.943 353.49,582.67C352.97,581.903 352.87,581.107 353.19,580.28C353.31,579.973 353.37,579.653 353.37,579.32C353.37,578.353 353.46,577.39 353.64,576.43C353.833,575.363 353.85,574.407 353.69,573.56C352.763,568.627 348.907,552.14 346.58,549.6C344.89,547.75 342.5,546.79 340.25,545.55C338.523,544.603 336.76,543.997 334.96,543.73C331.34,543.19 327.7,542.813 324.04,542.6C322.88,542.53 322.12,543.01 321.02,543.28C320.693,543.36 320.377,543.33 320.07,543.19C318.65,542.557 317.133,542.47 315.52,542.93C312.187,543.883 308.84,544.767 305.48,545.58C303.1,546.16 300.89,546.013 298.85,545.14C298.606,545.036 298.343,544.982 298.077,544.982C297.167,544.982 296.369,545.614 296.16,546.5C295.453,549.493 295.273,552.493 295.62,555.5C296.41,562.32 293.78,570.95 295.55,579.18C295.63,579.547 294.117,590.323 294.77,594.23C295.12,596.29 294.08,599.05 294.07,601.34C293.997,615.74 293.72,624.877 293.24,628.75C292.067,638.203 291.587,644.453 291.8,647.5C292.02,650.553 292.17,654.243 292.25,658.57C292.303,661.077 291.963,664.513 291.23,668.88C290.583,672.753 290.22,676.933 290.14,681.42C290.09,683.71 291.25,685.27 291.85,687.43C291.974,687.874 292.381,688.183 292.842,688.183C293.096,688.183 293.341,688.09 293.53,687.92C294.377,687.153 295.287,686.357 296.26,685.53C298.22,683.86 298.49,682.11 299.63,679.92C300.44,678.37 300.2,677.1 300.37,675.43C300.55,673.76 299.96,672.41 300.61,670.53C300.695,670.274 300.719,670.003 300.68,669.74C300.58,669.087 300.377,667.92 300.07,666.24C299.66,663.95 300,661.61 299.69,659.23C299.49,657.75 299.447,656.6 299.56,655.78C299.967,652.913 299.743,650.097 298.89,647.33C298.79,647.01 298.797,646.69 298.91,646.37C299.163,645.663 299.24,644.86 299.14,643.96C299.107,643.632 299.159,643.301 299.29,643C300.41,640.37 300.05,637.67 300.31,634.87C300.74,630.2 300.26,625.42 300.93,620.93C301.377,617.937 301.507,615.063 301.32,612.31C301.053,608.21 300.923,605.663 300.93,604.67C300.963,601.53 300.913,598.973 300.78,597C300.66,595.39 299.36,593.01 300.39,591.32C300.681,590.849 301.197,590.561 301.751,590.561C302.204,590.561 302.637,590.753 302.94,591.09C305.64,594.09 309.67,598.76 310.08,602.65C310.413,605.823 310.543,609.003 310.47,612.19C310.39,615.6 310.9,618.95 310.89,622.4C310.877,624.993 310.933,627.053 311.06,628.58C311.313,631.66 311.407,633.717 311.34,634.75C310.78,643.443 310.21,652.137 309.63,660.83C309.51,662.61 308.82,663.93 308.89,665.84C309.02,669.16 308.16,672.24 308.63,675.37C309.117,678.57 309.73,681.743 310.47,684.89C310.7,685.84 311.39,686.47 312.31,686.58C312.643,686.62 312.87,686.483 312.99,686.17C313.65,684.383 314.683,682.807 316.09,681.44C316.33,681.207 316.49,680.927 316.57,680.6C317.61,676.353 318.223,672.317 318.41,668.49C318.67,663.017 318.727,656.617 318.58,649.29C318.58,649.237 318.337,645.403 317.85,637.79C317.53,632.663 317.543,627.66 317.89,622.78C318.09,619.927 318.173,617.4 318.14,615.2C318.08,611.32 318.45,607.24 317.69,603.42C316.68,598.32 316.8,594.72 312.17,591.42C311.863,591.2 311.74,590.903 311.8,590.53C311.8,590.53 309.617,586.207 308.81,586.04C308.483,585.98 308.24,585.803 308.08,585.51C306.533,582.77 304.233,581.893 301.18,582.88C301.099,582.907 301.014,582.92 300.928,582.92C300.484,582.92 300.118,582.554 300.118,582.11C300.118,582.093 300.119,582.077 300.12,582.06C300.213,580.613 300.493,579.33 300.96,578.21C301.063,577.965 301.074,577.688 300.99,577.43L300.63,576.3C300.543,576.033 300.543,575.767 300.63,575.5L301.55,572.7C301.65,572.393 301.633,572.093 301.5,571.8C300.773,570.207 300.783,568.577 301.53,566.91C301.663,566.603 301.897,566.433 302.23,566.4C305.443,566.1 308.62,565.583 311.76,564.85C315.1,564.07 317.99,564.43 321.31,564.54C326.41,564.7 329.67,565.37 331.49,570.2C332.497,572.867 333.513,575.53 334.54,578.19C335.4,580.43 335,582.25 335.07,584.22C335.25,589.173 335.41,594.127 335.55,599.08C335.623,601.7 335.627,606.647 335.56,613.92C335.52,617.553 335.567,621.183 335.7,624.81C335.867,629.317 335.907,632.957 335.82,635.73C335.64,641.857 335.627,646.213 335.78,648.8C335.94,651.633 335.953,654.297 335.82,656.79C335.64,659.98 335.86,662.65 335.86,665.63C335.87,668.86 336.39,672.53 336.2,676.05C336.11,677.86 336.76,679.03 337.4,680.62C337.907,681.887 336.72,685.007 336.96,685.12C337.28,685.267 337.513,685.18 337.66,684.86C338.2,683.7 338.99,682.84 339.29,681.63C339.97,678.837 340.593,676.013 341.16,673.16C341.227,672.827 341.197,672.5 341.07,672.18C340.057,669.62 340.033,666.99 341,664.29C341.11,663.986 341.114,663.651 341.01,663.34C340.53,661.92 340.343,660.527 340.45,659.16C340.7,656.04 340.75,652.96 341.02,649.84C341.2,647.8 340.22,646.15 340.4,643.97C340.58,641.87 340.593,639.77 340.44,637.67C340.32,636.05 341.1,634.01 340.87,632.74C339.37,624.38 340.88,616.71 341.31,608.5C341.42,606.47 341.04,604.34 341.09,602.49C341.263,595.93 341.183,589.373 340.85,582.82C340.75,580.873 340.41,578.96 339.83,577.08C338.53,572.81 337,567.38 334.42,564.1C331.947,560.973 328.833,559.09 325.08,558.45C323.893,558.25 320.84,558.197 315.92,558.29C309.48,558.42 306.51,558 302.58,559.68C302.491,559.72 302.395,559.74 302.298,559.74C301.938,559.74 301.636,559.459 301.61,559.1C301.39,556.71 301.6,552.88 303.66,551.43C305.54,550.11 309.62,549.69 311.86,549.64C311.887,549.64 313.013,549.523 315.24,549.29C316.333,549.17 317.78,549.177 319.58,549.31C319.58,549.31 319.581,549.31 319.581,549.31C319.608,549.31 319.631,549.287 319.631,549.26C319.631,549.257 319.631,549.253 319.63,549.25ZM325.93,688.35C327.42,688.578 328.22,682.13 328.28,681.79C328.973,677.943 329.027,674.937 328.44,672.77C327.94,670.917 327.75,669.203 327.87,667.63C327.997,665.943 327.877,663.927 327.51,661.58C327.323,660.353 327.22,658.613 327.2,656.36C327.173,654.347 326.78,652.387 326.02,650.48C325.893,650.173 325.863,649.857 325.93,649.53C326.42,647.18 326.09,644.39 326.22,642.63C326.567,637.977 327.007,633.333 327.54,628.7C327.89,625.65 327.6,622.86 327.44,619.84C327.26,616.14 327.65,612.28 327.33,607.49C327.083,603.837 326.887,600.173 326.74,596.5C326.52,590.8 324.14,582.09 319.43,578.08C315.597,574.82 310.847,573.22 305.18,573.28C304.858,573.286 304.561,573.461 304.4,573.74C303.653,575.027 304.213,577.367 304.82,577.06C305.113,576.913 305.373,576.957 305.6,577.19C306.39,578.01 306.79,578.63 307.92,579.09C309.027,579.537 310.553,580.263 312.5,581.27C316.78,583.47 318.31,586.24 320.03,590.36C320.63,591.793 321.08,593.61 321.38,595.81C322.627,604.997 323.063,612.143 322.69,617.25C321.71,630.67 321.287,639.42 321.42,643.5C321.573,648.467 321.59,652.33 321.47,655.09C321.36,657.53 321.89,660.02 321.92,662.75C321.953,666.483 322.587,673.37 323.82,683.41C323.98,684.71 322.451,687.817 325.93,688.35ZM377.46,698.98C377.46,698.98 376.551,699.147 376.94,699.147C377.127,699.147 377.309,699.089 377.46,698.98Z" style="fill:white;fill-rule:nonzero;"/>
        <path d="M460.56,584.96C456.78,584.99 443.556,583.801 443.156,582.861C442.309,580.901 443.017,580.317 444.01,578.15C444.64,576.78 446.55,576.42 445.66,574.15C445.54,573.843 445.567,573.553 445.74,573.28C447.27,570.9 448.59,568.32 451.09,566.91C453.657,565.463 456.13,564.693 458.51,564.6C460.78,564.52 463.54,567.22 465.25,568.87C466.45,570.02 468.75,570.54 468.67,572.79C468.61,574.47 468.59,576.143 468.61,577.81C468.61,578.15 468.48,578.43 468.22,578.65L467.29,579.41C467.272,579.425 467.255,579.44 467.238,579.457C466.976,579.722 466.982,580.159 467.251,580.426C467.266,580.441 467.283,580.456 467.3,580.47C468.61,581.56 468.581,583.107 467.587,584.776C466.557,586.507 463.193,584.94 460.56,584.96Z" style="fill:white;fill-rule:nonzero;"/>
        <path d="M266.81,663.47L266.55,659.68C266.63,657.827 266.49,655.81 266.13,653.63C266.03,653.003 266.03,652.433 266.13,651.92C266.29,651.08 266.513,650.523 266.8,650.25C268.18,648.91 268.54,649.17 267.88,651.03C267.22,652.87 267.187,654.567 267.78,656.12C268.007,656.727 268.083,657.167 268.01,657.44C267.903,657.787 267.687,658.067 267.36,658.28C267.093,658.447 266.957,658.687 266.95,659L266.81,663.47Z" style="fill:white;fill-rule:nonzero;"/>
        <path d="M231.55,711.94C231.55,711.94 234.549,708.007 234.402,708.705C234.392,708.753 234.385,708.801 234.38,708.85C234.38,708.85 246.8,710.11 249.08,709.43C249.387,709.337 249.627,709.427 249.8,709.7C250.473,710.753 293.203,712.467 294.73,712.36C300.863,711.933 304.113,711.703 304.48,711.67C304.921,711.626 305.285,711.659 305.47,711.76C306.737,712.48 307.7,712.55 308.36,711.97C308.667,711.703 308.983,711.687 309.31,711.92C310.277,712.593 311.45,712.617 312.83,711.99C313.123,711.85 313.42,711.847 313.72,711.98C314.947,712.533 327.387,712.787 330.06,712.4C330.9,712.28 346.69,712.367 347.07,712.38C347.07,712.38 386.307,712.067 386.62,711.8C386.9,711.56 387.187,711.55 387.48,711.77C387.88,712.063 402.593,711.247 403.94,711.34C405.78,711.47 419.75,710.997 419.853,710.99C420.81,710.916 435.93,711.577 436.25,711.49C439.377,710.697 442.54,710.523 445.74,710.97C446.773,711.117 455.38,711.22 455.38,711.22C455.448,711.198 455.52,711.187 455.592,711.187C455.952,711.187 458.41,711.27 458.73,711.15C459.203,710.977 459.677,711.053 460.15,711.38C460.412,711.564 483.863,712.617 484.79,712.41C485.017,712.357 495.863,711.807 496.65,711.66C497.003,711.587 497.253,711.717 497.4,712.05L500.04,720.28L496.48,720.58C496.153,720.607 495.837,720.56 495.53,720.44C494.577,720.047 493.63,720.093 492.69,720.58C492.397,720.733 492.087,720.803 491.76,720.79C490.62,720.743 489.28,720.86 487.74,721.14C484.487,721.713 480.577,721.337 476.01,720.01C473.98,719.42 449.4,722.38 443,721.94C442.587,721.913 436.87,721.41 435.23,721.46C432.09,721.54 428.957,721.487 425.83,721.3C422.23,721.08 417.62,721.23 413.5,720.63C412.287,720.457 409.45,720.577 404.99,720.99C404.657,721.023 404.38,720.91 404.16,720.65L403.89,720.32C403.751,720.15 403.517,720.083 403.3,720.15C401.233,720.81 399.15,721.07 397.05,720.93C393.983,720.723 392.103,720.637 391.41,720.67C385.657,720.97 379.777,721.097 373.77,721.05C369.763,721.017 366.437,720.787 363.79,720.36C363.451,720.301 363.106,720.343 362.8,720.48C362.32,720.68 361.97,720.89 361.38,720.84C358.03,720.57 354.45,721.15 351.51,721.12C343.423,721.033 335.347,721.347 327.28,722.06C325.99,722.18 317.837,721.473 317.51,721.52C317.51,721.52 306.68,721.297 304.46,720.49C304.147,720.377 303.833,720.37 303.52,720.47L301.76,721.03C301.433,721.137 301.12,721.107 300.82,720.94C299.61,720.29 288.287,720.113 283.82,719.76C282.4,719.647 281.027,719.66 279.7,719.8C277.83,720 275.83,720.46 274,719.82C272.5,719.28 270.04,719.93 268.48,720.2C267.113,720.427 265.793,720.437 264.52,720.23C263.26,720.03 261.96,719.823 260.62,719.61C259.593,719.443 258.343,719.427 256.87,719.56C254.02,719.8 251.08,719.27 248.4,719.38C246.88,719.447 245.293,719.163 243.64,718.53C243.34,718.415 243.007,718.43 242.72,718.57C241.053,719.383 239.56,719.257 238.24,718.19C237.973,717.97 237.663,717.867 237.31,717.88L232.41,718.09C232.083,718.103 231.783,718.197 231.51,718.37C229.99,719.35 228.323,719.58 226.51,719.06C226.183,718.967 226.007,718.747 225.98,718.4C225.893,717.267 226.1,716.147 226.6,715.04C226.893,714.947 227.147,714.93 227.36,714.99C227.693,715.083 227.86,715.303 227.86,715.65C227.853,716.157 227.937,716.577 228.11,716.91C228.149,716.987 228.201,717.057 228.263,717.116C228.563,717.398 229.045,717.38 229.331,717.077C229.388,717.016 229.435,716.946 229.47,716.87L231.3,712.84C231.427,712.553 231.51,712.253 231.55,711.94ZM484.398,720.239C484.589,719.887 484.207,720.591 484.398,720.239C484.398,720.239 484.398,720.239 484.398,720.239ZM488.195,719.989C488.195,719.989 488.195,719.989 488.195,719.989C488.569,719.61 487.821,720.367 488.195,719.989Z" style="fill:white;fill-rule:nonzero;"/>
    </g>
</svg>
