<?xml version="1.0" encoding="UTF-8" standalone="no"?>
<!DOCTYPE svg PUBLIC "-//W3C//DTD SVG 1.1//EN" "http://www.w3.org/Graphics/SVG/1.1/DTD/svg11.dtd">
<svg width="100%" height="100%" viewBox="0 0 60 70" version="1.1" xmlns="http://www.w3.org/2000/svg" xmlns:xlink="http://www.w3.org/1999/xlink" xml:space="preserve" xmlns:serif="http://www.serif.com/" style="fill-rule:evenodd;clip-rule:evenodd;stroke-linecap:round;stroke-linejoin:round;stroke-miterlimit:1.5;">
    <g transform="matrix(1,0,0,1,25.7667,29.7084)">
        <g transform="matrix(7.94116,0,0,7.94116,-31.0245,-27.8583)">
            <path d="M1.97,1.406L6.496,1.407C6.627,1.407 6.745,1.461 6.831,1.546L6.841,1.557C6.921,1.643 6.971,1.758 6.971,1.881L6.971,7.78C6.971,7.908 6.917,8.028 6.831,8.114C6.745,8.201 6.627,8.255 6.496,8.255L1.97,8.255C1.84,8.255 1.722,8.201 1.636,8.115L1.626,8.104C1.545,8.018 1.496,7.903 1.496,7.78L1.496,1.881C1.496,1.753 1.55,1.634 1.636,1.547C1.722,1.461 1.84,1.406 1.97,1.406ZM2.687,3.475C2.594,3.475 2.518,3.399 2.518,3.305C2.518,3.212 2.594,3.136 2.687,3.136L5.376,3.134C5.47,3.134 5.445,3.212 5.445,3.305C5.445,3.399 5.369,3.475 5.276,3.475L2.687,3.475ZM2.687,2.684C2.594,2.684 2.518,2.608 2.518,2.514C2.518,2.421 2.594,2.345 2.687,2.345L5.779,2.345C5.873,2.345 5.833,2.422 5.833,2.516C5.833,2.609 5.873,2.684 5.779,2.684L2.687,2.684ZM6.496,1.745L1.97,1.745C1.934,1.745 1.9,1.761 1.875,1.786C1.85,1.811 1.835,1.845 1.835,1.881L1.835,7.78C1.835,7.814 1.848,7.846 1.87,7.87L1.875,7.876C1.9,7.9 1.934,7.916 1.97,7.916L6.496,7.916C6.533,7.916 6.566,7.9 6.591,7.876C6.616,7.851 6.632,7.816 6.632,7.78L6.632,1.881C6.632,1.848 6.619,1.816 6.597,1.791L6.591,1.786C6.566,1.761 6.533,1.745 6.496,1.745Z" style="fill:white;fill-rule:nonzero;"/>
        </g>
        <g transform="matrix(7.94116,0,0,7.94116,-31.0245,-28.8583)">
            <path d="M3.67,4.912L4.233,5.902" style="fill:none;stroke:white;stroke-width:0.16px;"/>
        </g>
        <g transform="matrix(7.94116,0,0,7.94116,-31.5357,-18.8898)">
            <rect x="2.152" y="3.575" width="1.583" height="0.903" style="fill:none;stroke:white;stroke-width:0.26px;"/>
        </g>
        <g transform="matrix(7.94116,0,0,7.94116,-10.0214,-4.24071)">
            <rect x="2.152" y="3.575" width="1.583" height="0.903" style="fill:none;stroke:white;stroke-width:0.26px;"/>
        </g>
    </g>
    <g transform="matrix(0.517888,0.299003,-0.299003,0.517888,11.1879,-26.5876)">
        <path d="M90.8,5L87.4,5C84.4,5 82,7.4 82,10.4L82,81.1C82,81.2 82.1,81.3 82.1,81.4L87.6,93.9C87.8,94.5 88.4,94.8 89,94.8C89.6,94.8 90.2,94.4 90.4,93.9L96,81.5C96,81.4 96.1,81.3 96.1,81.2L96.1,10.4C96.1,7.4 93.7,5 90.8,5ZM89.1,89.5L86,82.4L92.2,82.4L89.1,89.5ZM93,79.3L85.1,79.3L85.1,23.8L93,23.8L93,79.3ZM93,20.7L85.1,20.7L85.1,17.2L93,17.2L93,20.7ZM93,14L85.1,14L85.1,10.3C85.1,9.1 86.1,8.1 87.3,8.1L90.7,8.1C91.9,8.1 92.9,9.1 92.9,10.3L92.9,14L93,14Z" style="fill:white;fill-rule:nonzero;"/>
    </g>
</svg>
